<svg width="14" height="10" viewBox="0 0 14 10" fill="none" xmlns="http://www.w3.org/2000/svg">
<path d="M7 6.41663C7.9665 6.41663 8.75 5.63312 8.75 4.66663C8.75 3.70013 7.9665 2.91663 7 2.91663C6.0335 2.91663 5.25 3.70013 5.25 4.66663C5.25 5.63312 6.0335 6.41663 7 6.41663Z" fill="#1D1D1B"/>
<path d="M7 0C4.66667 0 2.33333 1.16667 0 4.66667C2.33333 8.16666 4.66667 9.33333 7 9.33333C9.33333 9.33333 11.6667 8.16666 14 4.66667C11.6667 1.16667 9.33333 0 7 0ZM7 7.58333C5.39185 7.58333 4.08333 6.27539 4.08333 4.66667C4.08333 3.05794 5.39185 1.75 7 1.75C8.60815 1.75 9.91667 3.05794 9.91667 4.66667C9.91667 6.27539 8.60815 7.58333 7 7.58333Z" fill="#1D1D1B"/>
</svg>
