<svg width="22" height="23" viewBox="0 0 22 23" fill="none" xmlns="http://www.w3.org/2000/svg">
<path d="M11 22.0688C11.7956 22.0688 12.5587 21.7782 13.1213 21.2608C13.6839 20.7435 14 20.0418 14 19.3102H8C8 20.0418 8.31607 20.7435 8.87868 21.2608C9.44129 21.7782 10.2044 22.0688 11 22.0688ZM11 2.64538L9.8045 2.86745C8.44844 3.12152 7.2295 3.79863 6.35398 4.78417C5.47846 5.76971 5.00015 7.00315 5 8.27573C5 9.14193 4.799 11.3061 4.3115 13.4371C4.0715 14.495 3.7475 15.5971 3.317 16.5516H18.683C18.2525 15.5971 17.93 14.4964 17.6885 13.4371C17.201 11.3061 17 9.14193 17 8.27573C16.9995 7.00339 16.521 5.77028 15.6455 4.78502C14.7701 3.79976 13.5513 3.12285 12.1955 2.86883L11 2.644V2.64538ZM20.33 16.5516C20.6645 17.1681 21.0515 17.6564 21.5 17.9309H0.5C0.9485 17.6564 1.3355 17.1681 1.67 16.5516C3.02 14.0688 3.5 9.48952 3.5 8.27573C3.5 4.9378 6.08 2.15159 9.5075 1.51573C9.48656 1.32394 9.50958 1.13024 9.57505 0.947137C9.64052 0.76403 9.74701 0.595574 9.88763 0.452634C10.0283 0.309694 10.1999 0.195443 10.3915 0.11725C10.5831 0.0390565 10.7904 -0.00134277 11 -0.00134277C11.2096 -0.00134277 11.4169 0.0390565 11.6085 0.11725C11.8001 0.195443 11.9717 0.309694 12.1124 0.452634C12.253 0.595574 12.3595 0.76403 12.4249 0.947137C12.4904 1.13024 12.5134 1.32394 12.4925 1.51573C14.1879 1.83283 15.7121 2.67898 16.8069 3.9109C17.9016 5.14282 18.4998 6.68479 18.5 8.27573C18.5 9.48952 18.98 14.0688 20.33 16.5516Z" fill="#212529"/>
</svg>
